<svg width="59" height="52" viewBox="0 0 59 52" fill="none" xmlns="http://www.w3.org/2000/svg">
<path d="M7.37612 10.4167L13.6438 15.3746L14.6549 16.1745L16.9787 18.012L18.1067 18.9044L26.8073 25.7879L20.352 28.1791L15.0038 30.1608L4.01242 34.2315C4.01242 34.2315 -4.63674 21.1808 7.37612 10.4167Z" fill="#E8E0A6"/>
<path d="M9.83081 12.3579L26.8072 25.7879L7.12309 33.0799C7.12309 33.0799 -0.503694 23.3085 9.83081 12.3579Z" fill="#EEB51D"/>
<path d="M5.91406 31.0195L25.8887 25.6064L7.25658 32.5607L5.91406 31.0195Z" fill="white"/>
<path d="M5.53113 19.611C5.53113 19.611 16.1526 18.8749 26.1644 25.6366L10.1074 12.3906C10.1074 12.3906 7.01235 15.4211 5.53113 19.611Z" fill="#F58921"/>
<path d="M13.6438 15.3745L14.6548 16.1745L16.9787 18.012L18.1066 18.9043C18.2573 19.7584 18.1419 20.6376 17.7759 21.4251C17.4098 22.2126 16.8103 22.8711 16.0572 23.313C15.3041 23.755 14.4329 23.9594 13.5596 23.8992C12.6863 23.839 11.8522 23.517 11.1681 22.976C10.4841 22.435 9.98256 21.7005 9.73019 20.8704C9.47781 20.0403 9.48657 19.1537 9.75528 18.3286C10.024 17.5035 10.5399 16.779 11.2345 16.2513C11.9291 15.7236 12.7694 15.4178 13.6438 15.3745Z" fill="#BD3728"/>
<path d="M17.7691 25.6625C18.422 25.7349 19.0314 26.0223 19.4998 26.4786C19.9681 26.9349 20.2683 27.5337 20.3521 28.179L15.0038 30.1607C14.6938 29.7005 14.523 29.1622 14.5114 28.6091C14.4998 28.056 14.648 27.5111 14.9385 27.0386C15.2289 26.5661 15.6497 26.1855 16.1511 25.9417C16.6526 25.698 17.2139 25.6011 17.7691 25.6625Z" fill="#BD3728"/>
<path d="M10.2452 21.3914C10.2452 21.3914 15.6955 24.3433 18.4259 20.0369C18.4259 20.0369 16.1378 24.993 12.6197 23.6902C9.44093 22.5119 10.2452 21.3914 10.2452 21.3914Z" fill="white"/>
<path d="M9.994 19.2388C9.994 19.2388 13.2033 15.9888 16.9857 18.6997L13.3507 15.3997C13.3507 15.3997 9.83698 16.1797 9.994 19.2388Z" fill="#8F251E"/>
<path d="M13.6438 15.3745L14.6548 16.1745L16.9787 18.012L18.1066 18.9043C18.2573 19.7584 18.1419 20.6376 17.7759 21.4251C17.4098 22.2126 16.8103 22.8711 16.0572 23.313C15.3041 23.755 14.4329 23.9594 13.5596 23.8992C12.6863 23.839 11.8522 23.517 11.1681 22.976C10.4841 22.435 9.98256 21.7005 9.73019 20.8704C9.47781 20.0403 9.48657 19.1537 9.75528 18.3286C10.024 17.5035 10.5399 16.779 11.2345 16.2513C11.9291 15.7236 12.7694 15.4178 13.6438 15.3745V15.3745Z" stroke="#763317" stroke-linecap="round" stroke-linejoin="round"/>
<path d="M15.1198 29.0758L19.6977 27.5959L19.8216 27.8638L15.234 29.5466L15.1198 29.0758Z" fill="white"/>
<path d="M15.0544 28.1763C15.0544 28.1763 16.6534 26.3155 19.4326 26.9799C19.4326 26.9799 18.0264 24.9929 15.8482 26.1117C13.67 27.2304 15.0544 28.1763 15.0544 28.1763Z" fill="#8F251E"/>
<path d="M17.7691 25.6625C18.422 25.7349 19.0314 26.0223 19.4998 26.4786C19.9681 26.9349 20.2683 27.5337 20.3521 28.179L15.0038 30.1607C14.6938 29.7005 14.523 29.1622 14.5114 28.6091C14.4998 28.056 14.648 27.5111 14.9385 27.0386C15.2289 26.5661 15.6497 26.1855 16.1511 25.9417C16.6526 25.698 17.2139 25.6011 17.7691 25.6625V25.6625Z" stroke="#763317" stroke-linecap="round" stroke-linejoin="round"/>
<path d="M3.44983 31.9801C3.44983 31.9801 4.25412 32.0441 3.82929 23.9615L6.96968 32.7205L3.89385 33.8945L3.44983 31.9801Z" fill="white"/>
<path d="M1.40411 21.522C1.40411 21.522 4.59335 16.6281 6.76808 16.2065L9.65724 12.5454L7.37609 10.4167C7.37609 10.4167 2.77978 14.3397 1.40411 21.522Z" fill="#EBCD93"/>
<path d="M7.37612 10.4167L13.6438 15.3746L14.6549 16.1745L16.9787 18.012L18.1067 18.9044L26.8073 25.7879L20.352 28.1791L15.0038 30.1608L4.01242 34.2315C4.01242 34.2315 -4.63674 21.1808 7.37612 10.4167Z" stroke="#763317" stroke-linecap="round" stroke-linejoin="round"/>
<path d="M9.83081 12.3579L26.8072 25.7879L7.12309 33.0799C7.12309 33.0799 -0.503694 23.3085 9.83081 12.3579Z" stroke="#763317" stroke-linecap="round" stroke-linejoin="round"/>
<path d="M54.8701 17.1238L47.3576 19.9116L46.146 20.3616L43.3623 21.3983L42.0094 21.8933L31.5824 25.7635L32.8194 19.052L33.8426 13.4886L35.9449 2.05679C35.9449 2.05679 51.694 1.39074 54.8701 17.1238Z" fill="#E8E0A6"/>
<path d="M51.9278 18.2157L39.2746 22.9109L37.9976 23.3852L37.8728 23.431L35.9101 24.1601L31.5807 25.767L35.3492 5.29115C35.3492 5.29115 47.7293 3.8165 51.9278 18.2157Z" fill="#EEB51D"/>
<path d="M37.7551 5.32056L32.2106 25.0802L35.7313 5.67216L37.7551 5.32056Z" fill="white"/>
<path d="M47.8435 10.8417C47.8435 10.8417 43.037 20.252 32.043 25.2979L51.7577 18.4352C51.7577 18.4352 50.717 14.2488 47.8435 10.8417Z" fill="#F58921"/>
<path d="M47.3576 19.9117L46.146 20.3618L43.3624 21.3984L42.0094 21.8935C41.1917 21.5839 40.4885 21.0353 39.9933 20.3204C39.498 19.6056 39.2342 18.7584 39.237 17.8915C39.2397 17.0246 39.5088 16.179 40.0084 15.4672C40.5081 14.7554 41.2147 14.2111 42.0343 13.9066C42.854 13.6021 43.7477 13.5519 44.5969 13.7626C45.446 13.9733 46.2103 14.4349 46.7881 15.0862C47.3659 15.7374 47.7298 16.5474 47.8316 17.4084C47.9333 18.2695 47.768 19.1408 47.3576 19.9065V19.9117Z" fill="#BD3728"/>
<path d="M36.3235 18.1458C35.9263 18.6637 35.365 19.0345 34.7296 19.1988C34.0942 19.3631 33.4215 19.3115 32.8193 19.0521L33.8426 13.4886C34.4005 13.4609 34.9548 13.5916 35.4403 13.8652C35.9258 14.1389 36.3223 14.5442 36.5831 15.0334C36.8439 15.5227 36.9582 16.0755 36.9125 16.6269C36.8668 17.1783 36.6631 17.7052 36.3252 18.1458H36.3235Z" fill="#BD3728"/>
<path d="M43.8832 13.9371C43.8832 13.9371 38.5305 17.0591 40.8649 21.5885C40.8649 21.5885 37.7402 17.1023 40.673 14.7785C43.3249 12.6767 43.8832 13.9371 43.8832 13.9371Z" fill="white"/>
<path d="M45.8782 14.8269C45.8782 14.8269 47.0515 19.2223 42.7622 21.0469L47.4868 19.6474C47.4868 19.6474 48.6086 16.2627 45.8782 14.8269Z" fill="#8F251E"/>
<path d="M47.3576 19.9117L46.146 20.3618L43.3624 21.3984L42.0094 21.8935C41.1917 21.5839 40.4885 21.0353 39.9933 20.3204C39.498 19.6056 39.2342 18.7584 39.237 17.8915C39.2397 17.0246 39.5088 16.179 40.0084 15.4672C40.5081 14.7554 41.2147 14.2111 42.0343 13.9066C42.854 13.6021 43.7477 13.5519 44.5969 13.7626C45.446 13.9733 46.2103 14.4349 46.7881 15.0862C47.3659 15.7374 47.7298 16.5474 47.8316 17.4084C47.9333 18.2695 47.768 19.1408 47.3576 19.9065V19.9117Z" stroke="#763317" stroke-linecap="round" stroke-linejoin="round"/>
<path d="M34.7229 14.1444L33.6586 18.7964L33.3629 18.7636L34.2553 14.0001L34.7229 14.1444Z" fill="white"/>
<path d="M35.5359 14.5504C35.5359 14.5504 36.3289 16.8639 34.3286 18.8863C34.3286 18.8863 36.7712 18.7135 36.9186 16.2834C37.066 13.8533 35.5359 14.5504 35.5359 14.5504Z" fill="#8F251E"/>
<path d="M36.3235 18.1458C35.9263 18.6637 35.365 19.0345 34.7296 19.1988C34.0942 19.3631 33.4215 19.3115 32.8193 19.0521L33.8426 13.4886C34.4005 13.4609 34.9548 13.5916 35.4403 13.8652C35.9258 14.1389 36.3223 14.5442 36.5831 15.0334C36.8439 15.5227 36.9582 16.0755 36.9125 16.6269C36.8668 17.1783 36.6631 17.7052 36.3252 18.1458H36.3235Z" stroke="#763317" stroke-linecap="round" stroke-linejoin="round"/>
<path d="M38.186 2.73235C38.186 2.73235 37.7184 3.38372 44.9448 7.16408L35.74 5.34992L36.2983 2.13281L38.186 2.73235Z" fill="white"/>
<path d="M48.3024 6.35303C48.3024 6.35303 50.9106 11.5735 50.1613 13.639L51.8554 17.9723L54.8701 17.1239C54.8701 17.1239 53.8251 11.2046 48.3024 6.35303Z" fill="#EBCD93"/>
<path d="M54.8701 17.1238L47.3576 19.9116L46.146 20.3616L43.3623 21.3983L42.0094 21.8933L31.5824 25.7635L32.8194 19.052L33.8426 13.4886L35.9449 2.05679C35.9449 2.05679 51.694 1.39074 54.8701 17.1238Z" stroke="#763317" stroke-linecap="round" stroke-linejoin="round"/>
<path d="M51.9278 18.2157L31.5824 25.767L35.3491 5.29115C35.3491 5.29115 47.7301 3.8165 51.9278 18.2157Z" stroke="#763317" stroke-linecap="round" stroke-linejoin="round"/>
<path d="M39.7858 8.15757C41.9998 10.1445 39.3008 11.8723 39.3008 11.8723L38.4433 10.9376C38.4433 10.9376 38.0124 13.0973 36.6271 11.9466C35.2846 10.8322 37.1679 9.87843 37.1679 9.87843L36.2651 9.35232C36.2651 9.35232 37.5718 6.17063 39.7858 8.15757Z" fill="#BF9D69"/>
<path d="M39.5992 8.24397C39.5992 8.24397 37.9034 7.92606 37.0241 9.51561L36.2651 9.35061C36.2651 9.35061 37.6268 6.45746 39.5992 8.24397Z" fill="white"/>
<path d="M37.1679 9.87497C37.1679 9.87497 35.2846 10.8252 36.6271 11.9431C38.0124 13.0929 38.4433 10.9341 38.4433 10.9341L39.3008 11.8723C39.3008 11.8723 41.9998 10.1445 39.7858 8.15757C37.5718 6.17063 36.2651 9.35232 36.2651 9.35232L37.1679 9.87497Z" stroke="#763317" stroke-linecap="round" stroke-linejoin="round"/>
<path d="M43.5246 10.3363C44.5601 8.75198 45.9357 10.2577 45.9357 10.2577L45.4298 10.8875C45.4298 10.8875 46.8456 10.935 46.2568 11.9173C45.6854 12.8675 44.8863 11.792 44.8863 11.792L44.6447 12.4088C44.6447 12.4088 42.4883 11.9199 43.5246 10.3363Z" fill="#BF9D69"/>
<path d="M43.5996 10.4435C43.5996 10.4435 43.5708 11.5328 44.6717 11.9181L44.6447 12.4088C44.6447 12.4088 42.6671 11.8559 43.5996 10.4435Z" fill="white"/>
<path d="M44.8864 11.792C44.8864 11.792 45.6854 12.8675 46.2568 11.9173C46.8456 10.935 45.4298 10.8875 45.4298 10.8875L45.9358 10.2577C45.9358 10.2577 44.5601 8.75198 43.5247 10.3363C42.4892 11.9207 44.6447 12.4097 44.6447 12.4097L44.8864 11.792Z" stroke="#763317" stroke-linecap="round" stroke-linejoin="round"/>
<path d="M37.9993 23.3854L37.8414 23.3509C37.8414 23.3509 37.8545 23.3802 37.8746 23.4312L35.9118 24.1603C35.9422 23.8323 36.0339 23.5127 36.1822 23.2178L35.1354 23.3042C35.1351 23.2985 35.1351 23.2927 35.1354 23.2869C35.0779 23.0235 34.476 19.9757 37.3163 20.3135C39.3436 20.5545 39.4273 22.0119 39.2781 22.9112L37.9993 23.3854Z" fill="#BF9D69"/>
<path d="M37.2132 20.4929C37.2132 20.4929 35.643 21.2039 35.8541 23.0051L35.1388 23.304C35.1388 23.304 34.564 20.1655 37.2132 20.4929Z" fill="white"/>
<path d="M37.9993 23.3854L37.8414 23.3509C37.8414 23.3509 37.8545 23.3802 37.8746 23.4312L35.9118 24.1603C35.9422 23.8323 36.0339 23.5127 36.1822 23.2178L35.1354 23.3042C35.1351 23.2985 35.1351 23.2927 35.1354 23.2869C35.0779 23.0235 34.476 19.9757 37.3163 20.3135C39.3436 20.5545 39.4273 22.0119 39.2781 22.9112L37.9993 23.3854Z" stroke="#763317" stroke-linecap="round" stroke-linejoin="round"/>
<path d="M35.4521 2.03612L34.2692 9.89747L34.079 11.1648L33.6429 14.0778L33.43 15.4877L31.7874 26.3951L26.4566 22.0661L22.0409 18.4802L12.9686 11.113C12.9686 11.113 20.0188 -2.84656 35.4521 2.03612Z" fill="#E8E0A6"/>
<path d="M34.9881 5.11328L32.9939 18.3514L32.7933 19.687L32.7732 19.8175L32.4705 21.8666L31.7901 26.3959L15.5333 13.2001C15.5333 13.2001 20.2378 1.76486 34.9881 5.11328Z" fill="#EEB51D"/>
<path d="M16.7266 11.1311L31.4838 25.5174L16.0549 13.0532L16.7266 11.1311Z" fill="white"/>
<path d="M26.4958 5.07275C26.4958 5.07275 32.4704 13.7988 31.5981 25.7688L35.1005 5.36474C35.1005 5.36474 30.9002 4.23738 26.4958 5.07275Z" fill="#F58921"/>
<path d="M14.6496 9.5018C14.6496 9.5018 14.9985 10.2231 21.8428 5.80005L15.7723 12.8882L13.2015 10.8434L14.6496 9.5018Z" fill="white"/>
<path d="M22.7554 2.4978C22.7554 2.4978 28.6323 2.77165 30.0908 4.42254L34.7386 5.05749L35.4521 2.03389C35.4521 2.03389 29.7183 0.0694206 22.7554 2.4978Z" fill="#EBCD93"/>
<path d="M35.4521 2.03612L34.2692 9.89747L34.079 11.1648L33.6429 14.0778L33.43 15.4877L31.7874 26.3951L26.4566 22.0661L22.0409 18.4802L12.9686 11.113C12.9686 11.113 20.0188 -2.84656 35.4521 2.03612Z" stroke="#763317" stroke-linecap="round" stroke-linejoin="round"/>
<path d="M34.9889 5.11328L31.7875 26.3951L15.5342 13.2001C15.5342 13.2001 20.2378 1.76486 34.9889 5.11328Z" stroke="#763317" stroke-linecap="round" stroke-linejoin="round"/>
<path d="M19.5233 11.2252L20.7725 11.8895C20.8831 11.9447 20.9671 12.0411 21.006 12.1576C21.0449 12.274 21.0356 12.401 20.9801 12.5107L20.1077 14.114C20.0463 14.2207 19.9446 14.2988 19.825 14.3312C19.7055 14.3636 19.5778 14.3476 19.4701 14.2868L18.22 13.6233C18.1093 13.568 18.0253 13.4714 17.9866 13.3547C17.9478 13.2381 17.9574 13.111 18.0133 13.0013L18.8813 11.3988C18.9117 11.3455 18.9525 11.2986 19.0013 11.261C19.0501 11.2233 19.106 11.1956 19.1657 11.1795C19.2254 11.1633 19.2877 11.1591 19.3491 11.1669C19.4105 11.1748 19.4697 11.1946 19.5233 11.2252Z" fill="#BD3728"/>
<path d="M18.3299 12.7587C18.3299 12.7587 19.7562 13.8973 20.0746 13.594L19.8425 14.3119L17.8423 13.5768L18.3299 12.7587Z" fill="white"/>
<path d="M20.7725 11.8896C20.8831 11.9448 20.9671 12.0412 21.006 12.1576C21.0449 12.2741 21.0356 12.4011 20.9801 12.5107L20.1077 14.1141C20.0463 14.2207 19.9446 14.2988 19.825 14.3312C19.7055 14.3636 19.5778 14.3477 19.4701 14.2869L18.22 13.6234C18.1093 13.5681 18.0253 13.4715 17.9866 13.3548C17.9478 13.2382 17.9574 13.111 18.0133 13.0014L18.8813 11.3989C18.9429 11.2922 19.0447 11.2141 19.1644 11.1817C19.2842 11.1493 19.412 11.1653 19.5198 11.2261L20.7725 11.8896Z" stroke="#763317" stroke-linecap="round" stroke-linejoin="round"/>
<path d="M25.3357 9.43532L26.4775 9.06212C26.5766 9.0271 26.6856 9.03235 26.7807 9.07671C26.8759 9.12106 26.9494 9.20092 26.9852 9.29882L27.4729 10.7674C27.5034 10.8667 27.493 10.974 27.444 11.0658C27.395 11.1575 27.3113 11.2264 27.2112 11.2572L26.0693 11.6304C25.9703 11.6655 25.8612 11.6602 25.7661 11.6159C25.671 11.5715 25.5974 11.4916 25.5616 11.3937L25.074 9.92514C25.0432 9.82582 25.0534 9.71845 25.1025 9.62662C25.1516 9.53479 25.2354 9.46598 25.3357 9.43532Z" fill="#BD3728"/>
<path d="M25.5912 11.0577C25.5912 11.0577 27.13 10.8529 27.13 10.4814L27.4397 11.0412L25.8154 11.83L25.5912 11.0577Z" fill="white"/>
<path d="M26.4775 9.06212C26.5766 9.0271 26.6856 9.03235 26.7807 9.07671C26.8758 9.12106 26.9494 9.20092 26.9852 9.29882L27.4729 10.7674C27.5034 10.8667 27.493 10.974 27.444 11.0658C27.395 11.1575 27.3113 11.2264 27.2112 11.2572L26.0693 11.6304C25.9702 11.6655 25.8612 11.6602 25.7661 11.6159C25.671 11.5715 25.5974 11.4916 25.5616 11.3937L25.074 9.92514C25.0434 9.82593 25.0538 9.71879 25.1029 9.62716C25.1519 9.53552 25.2356 9.46686 25.3357 9.43618L26.4775 9.06212Z" stroke="#763317" stroke-linecap="round" stroke-linejoin="round"/>
<path d="M28.9541 5.84238L29.5918 6.6026C29.6494 6.66784 29.6785 6.75303 29.6728 6.8395C29.6671 6.92597 29.627 7.00667 29.5613 7.06391L28.5642 7.88287C28.5301 7.90938 28.4911 7.92898 28.4494 7.94055C28.4077 7.95212 28.364 7.95544 28.321 7.9503C28.278 7.94517 28.2364 7.93168 28.1987 7.91063C28.1609 7.88957 28.1277 7.86135 28.101 7.82758L27.4616 7.06564C27.433 7.03333 27.4111 6.99575 27.3972 6.95507C27.3834 6.91438 27.3777 6.87138 27.3806 6.82853C27.3835 6.78568 27.395 6.74382 27.4142 6.70534C27.4335 6.66687 27.4603 6.63254 27.493 6.60432L28.49 5.78536C28.5242 5.75881 28.5634 5.73922 28.6053 5.72771C28.6472 5.7162 28.6909 5.71301 28.7341 5.7183C28.7772 5.7236 28.8188 5.73729 28.8566 5.75858C28.8944 5.77988 28.9275 5.80835 28.9541 5.84238Z" fill="#BD3728"/>
<path d="M27.7599 6.53174C27.7599 6.53174 28.3871 7.64961 28.6776 7.53644L28.3339 7.94419L27.2269 6.93776L27.7599 6.53174Z" fill="white"/>
<path d="M29.5918 6.60267C29.6494 6.66791 29.6785 6.75311 29.6728 6.83958C29.6671 6.92605 29.627 7.00675 29.5613 7.06399L28.5642 7.88295C28.5301 7.90946 28.4911 7.92906 28.4494 7.94063C28.4077 7.9522 28.364 7.95551 28.321 7.95038C28.278 7.94524 28.2364 7.93176 28.1987 7.9107C28.1609 7.88965 28.1277 7.86143 28.101 7.82766L27.4616 7.06571C27.433 7.0334 27.4111 6.99583 27.3972 6.95514C27.3834 6.91446 27.3777 6.87146 27.3806 6.8286C27.3835 6.78575 27.395 6.74389 27.4142 6.70542C27.4335 6.66695 27.4603 6.63262 27.493 6.6044L28.49 5.78544C28.5241 5.75888 28.563 5.73922 28.6047 5.72758C28.6464 5.71594 28.69 5.71255 28.733 5.71761C28.776 5.72266 28.8176 5.73606 28.8554 5.75704C28.8932 5.77801 28.9264 5.80616 28.9532 5.83986L29.5918 6.60267Z" stroke="#763317" stroke-linecap="round" stroke-linejoin="round"/>
<path d="M23.2429 8.93506L23.4523 9.54669C23.4622 9.573 23.4668 9.60099 23.4657 9.62906C23.4647 9.65712 23.458 9.68471 23.4462 9.71023C23.4344 9.73575 23.4176 9.75871 23.3968 9.77778C23.3759 9.79686 23.3515 9.81168 23.3249 9.8214L22.5259 10.0866C22.4714 10.1034 22.4124 10.0981 22.3619 10.0718C22.3114 10.0456 22.2734 10.0006 22.2563 9.94666L22.0461 9.33331C22.0267 9.28026 22.0293 9.22176 22.0533 9.1706C22.0773 9.11944 22.1209 9.07979 22.1743 9.06032L22.9751 8.79079C23.03 8.77496 23.0889 8.78124 23.1391 8.80827C23.1892 8.8353 23.2266 8.88087 23.2429 8.93506Z" fill="#BD3728"/>
<path d="M22.3515 9.07593C22.3515 9.07593 22.471 9.90353 22.6751 9.90094L22.3689 10.0737L21.9327 9.20378L22.3515 9.07593Z" fill="white"/>
<path d="M23.4523 9.5398C23.4622 9.56612 23.4668 9.59411 23.4657 9.62218C23.4647 9.65024 23.458 9.67782 23.4462 9.70335C23.4344 9.72887 23.4176 9.75183 23.3968 9.7709C23.3759 9.78998 23.3515 9.8048 23.3249 9.81452L22.5259 10.0866C22.4714 10.1034 22.4124 10.0981 22.3619 10.0719C22.3114 10.0456 22.2734 10.0006 22.2563 9.94669L22.0461 9.33334C22.0267 9.28029 22.0293 9.22179 22.0533 9.17063C22.0773 9.11947 22.1209 9.07982 22.1743 9.06035L22.9751 8.79082C23.0297 8.77432 23.0887 8.77987 23.1392 8.80624C23.1897 8.83262 23.2276 8.87769 23.2447 8.93163L23.4523 9.5398Z" stroke="#763317" stroke-linecap="round" stroke-linejoin="round"/>
<path d="M31.1261 22.5905L31.3364 23.203C31.3559 23.2561 31.3534 23.3146 31.3296 23.3659C31.3057 23.4172 31.2624 23.4571 31.209 23.4769L30.4073 23.7456C30.3804 23.7538 30.3521 23.7568 30.324 23.7543C30.296 23.7517 30.2687 23.7437 30.2437 23.7307C30.2188 23.7177 30.1967 23.7 30.1786 23.6785C30.1606 23.657 30.147 23.6323 30.1387 23.6056L29.9284 22.9931C29.9087 22.9401 29.911 22.8814 29.9349 22.8301C29.9588 22.7787 30.0023 22.7389 30.0558 22.7193L30.8566 22.4497C30.8836 22.4414 30.912 22.4385 30.9402 22.4411C30.9684 22.4437 30.9958 22.4518 31.0208 22.4648C31.0459 22.4779 31.068 22.4957 31.0861 22.5173C31.1042 22.5389 31.1178 22.5638 31.1261 22.5905Z" fill="#BD3728"/>
<path d="M30.2381 22.7357C30.2381 22.7357 30.3576 23.5625 30.5609 23.5599L30.2556 23.7326L29.8151 22.8627L30.2381 22.7357Z" fill="white"/>
<path d="M31.3364 23.203C31.3559 23.2561 31.3534 23.3146 31.3296 23.3659C31.3057 23.4172 31.2624 23.4571 31.209 23.4769L30.4073 23.7456C30.3804 23.7538 30.3521 23.7568 30.324 23.7543C30.296 23.7517 30.2687 23.7437 30.2437 23.7307C30.2188 23.7177 30.1967 23.7 30.1786 23.6785C30.1606 23.657 30.147 23.6323 30.1387 23.6056L29.9284 22.9931C29.9087 22.9401 29.911 22.8814 29.9349 22.8301C29.9588 22.7787 30.0023 22.7389 30.0558 22.7193L30.8566 22.4497C30.8836 22.4414 30.912 22.4385 30.9402 22.4411C30.9684 22.4437 30.9958 22.4518 31.0208 22.4648C31.0459 22.4779 31.068 22.4957 31.0861 22.5173C31.1042 22.5389 31.1178 22.5638 31.1261 22.5905L31.3364 23.203Z" stroke="#763317" stroke-linecap="round" stroke-linejoin="round"/>
<path d="M26.5098 19.0953L26.3354 19.7182C26.3208 19.7727 26.2852 19.8194 26.2363 19.8483C26.1874 19.8772 26.129 19.886 26.0737 19.8728L25.2563 19.6474C25.2018 19.6303 25.1563 19.5925 25.1298 19.5423C25.1033 19.4921 25.098 19.4336 25.115 19.3795L25.2894 18.7576C25.3038 18.703 25.3394 18.6562 25.3884 18.6274C25.4374 18.5986 25.4958 18.5901 25.5511 18.6038L26.365 18.831C26.4195 18.8472 26.4653 18.8841 26.4924 18.9336C26.5196 18.9831 26.5258 19.0413 26.5098 19.0953Z" fill="#BD3728"/>
<path d="M25.6951 18.7169C25.6951 18.7169 25.32 19.465 25.4892 19.5808L25.1403 19.5488L25.2755 18.5847L25.6951 18.7169Z" fill="white"/>
<path d="M26.3327 19.7182C26.3181 19.7727 26.2826 19.8194 26.2337 19.8483C26.1848 19.8772 26.1264 19.886 26.071 19.8728L25.2563 19.6474C25.2018 19.6303 25.1563 19.5925 25.1298 19.5423C25.1033 19.4921 25.098 19.4336 25.115 19.3795L25.2894 18.7576C25.3038 18.703 25.3394 18.6562 25.3884 18.6274C25.4374 18.5986 25.4958 18.5901 25.5511 18.6038L26.365 18.831C26.3921 18.8393 26.4172 18.8527 26.439 18.8706C26.4607 18.8885 26.4787 18.9105 26.4919 18.9353C26.5052 18.9601 26.5133 18.9872 26.5159 19.0151C26.5185 19.043 26.5156 19.0712 26.5072 19.0979L26.3327 19.7182Z" stroke="#763317" stroke-linecap="round" stroke-linejoin="round"/>
<path d="M31.5772 14.2342L32.1878 14.4675C32.2415 14.4868 32.2852 14.5263 32.3096 14.5775C32.3339 14.6286 32.3369 14.6872 32.3178 14.7405L32.0125 15.518C32.0016 15.5438 31.9857 15.5673 31.9656 15.5871C31.9456 15.6069 31.9218 15.6225 31.8956 15.6332C31.8695 15.6439 31.8414 15.6493 31.8131 15.6493C31.7848 15.6492 31.7568 15.6436 31.7307 15.6329L31.1201 15.3996C31.0664 15.3803 31.0227 15.3408 30.9983 15.2896C30.974 15.2385 30.971 15.1799 30.9901 15.1266L31.2946 14.3491C31.3167 14.2968 31.3589 14.2554 31.4119 14.2338C31.4649 14.2123 31.5243 14.2124 31.5772 14.2342Z" fill="#BD3728"/>
<path d="M31.1201 15.0022C31.1201 15.0022 31.8372 15.4419 31.9663 15.2864L31.9008 15.6276L30.9413 15.403L31.1201 15.0022Z" fill="white"/>
<path d="M32.187 14.464C32.2406 14.4833 32.2844 14.5228 32.3088 14.574C32.3331 14.6251 32.3361 14.6837 32.317 14.737L32.0116 15.5145C32.0008 15.5403 31.9848 15.5638 31.9648 15.5836C31.9447 15.6034 31.921 15.619 31.8948 15.6297C31.8686 15.6404 31.8406 15.6458 31.8123 15.6458C31.784 15.6457 31.756 15.6402 31.7299 15.6294L31.1192 15.3961C31.0656 15.3768 31.0218 15.3373 30.9975 15.2861C30.9731 15.235 30.9702 15.1764 30.9893 15.1231L31.2937 14.3456C31.3159 14.2936 31.3579 14.2523 31.4107 14.2307C31.4635 14.2092 31.5227 14.2092 31.5755 14.2307L32.187 14.464Z" stroke="#763317" stroke-linecap="round" stroke-linejoin="round"/>
<path d="M32.8812 6.42984L32.8193 7.07257C32.8146 7.12889 32.7877 7.18112 32.7445 7.21798C32.7012 7.25484 32.645 7.27336 32.5881 7.26953L31.7463 7.18315C31.69 7.17643 31.6388 7.14796 31.6036 7.10394C31.5685 7.05992 31.5523 7.00392 31.5587 6.94817L31.6224 6.30457C31.6244 6.2766 31.632 6.2493 31.6446 6.22422C31.6573 6.19913 31.6748 6.17677 31.6962 6.15839C31.7176 6.14002 31.7424 6.126 31.7693 6.11714C31.7961 6.10828 31.8245 6.10475 31.8527 6.10674L32.6945 6.19313C32.751 6.20004 32.8023 6.22885 32.8373 6.27323C32.8723 6.31761 32.8881 6.37394 32.8812 6.42984Z" fill="#BD3728"/>
<path d="M32.0116 6.19755C32.0116 6.19755 31.7761 7.0001 31.9628 7.0813L31.6138 7.11067L31.5754 6.13794L32.0116 6.19755Z" fill="white"/>
<path d="M32.8193 7.07257C32.8146 7.12889 32.7877 7.18112 32.7445 7.21798C32.7012 7.25484 32.645 7.27336 32.5881 7.26953L31.7463 7.18315C31.69 7.17643 31.6388 7.14796 31.6036 7.10394C31.5685 7.05992 31.5523 7.00392 31.5587 6.94817L31.6224 6.30457C31.6244 6.2766 31.632 6.2493 31.6446 6.22422C31.6573 6.19913 31.6748 6.17677 31.6962 6.15839C31.7176 6.14002 31.7424 6.126 31.7693 6.11714C31.7961 6.10828 31.8245 6.10475 31.8527 6.10674L32.6945 6.19313C32.751 6.20004 32.8023 6.22885 32.8373 6.27323C32.8723 6.31761 32.8881 6.37394 32.8812 6.42984L32.8193 7.07257Z" stroke="#763317" stroke-linecap="round" stroke-linejoin="round"/>
<path d="M29.0195 14.0519L29.6424 14.2454C29.6696 14.253 29.6951 14.266 29.7174 14.2834C29.7396 14.3009 29.7582 14.3225 29.772 14.347C29.7857 14.3716 29.7945 14.3986 29.7977 14.4265C29.8009 14.4545 29.7985 14.4827 29.7906 14.5097L29.5377 15.3088C29.5189 15.3622 29.4795 15.406 29.4282 15.4308C29.3769 15.4555 29.3178 15.4592 29.2638 15.441L28.6409 15.2475C28.5871 15.2318 28.5415 15.196 28.5138 15.1476C28.4862 15.0992 28.4786 15.0421 28.4926 14.9883L28.7465 14.1892C28.7551 14.1623 28.769 14.1373 28.7874 14.1158C28.8059 14.0943 28.8285 14.0766 28.8539 14.0638C28.8793 14.051 28.907 14.0434 28.9355 14.0413C28.9639 14.0393 28.9925 14.0429 29.0195 14.0519Z" fill="#BD3728"/>
<path d="M28.6139 14.8475C28.6139 14.8475 29.358 15.2399 29.4766 15.0761L29.4339 15.421L28.4647 15.2589L28.6139 14.8475Z" fill="white"/>
<path d="M29.6424 14.2454C29.6696 14.2531 29.6951 14.266 29.7174 14.2834C29.7396 14.3009 29.7582 14.3225 29.772 14.3471C29.7857 14.3716 29.7945 14.3986 29.7977 14.4266C29.8009 14.4545 29.7985 14.4827 29.7906 14.5097L29.5377 15.3088C29.5189 15.3622 29.4795 15.406 29.4282 15.4308C29.3769 15.4555 29.3178 15.4592 29.2638 15.441L28.6409 15.2475C28.5871 15.2318 28.5415 15.196 28.5138 15.1476C28.4862 15.0993 28.4786 15.0421 28.4926 14.9883L28.7465 14.1892C28.7555 14.1627 28.7698 14.1382 28.7884 14.1171C28.807 14.0961 28.8297 14.0789 28.8551 14.0665C28.8804 14.0541 28.908 14.0469 28.9362 14.0451C28.9645 14.0433 28.9928 14.0471 29.0195 14.0562L29.6424 14.2454Z" stroke="#763317" stroke-linecap="round" stroke-linejoin="round"/>
<path d="M22.108 14.9987L22.3174 15.6112C22.3371 15.6642 22.3348 15.7229 22.3109 15.7742C22.287 15.8256 22.2436 15.8654 22.19 15.8851L21.3918 16.1546C21.3375 16.1711 21.2787 16.1656 21.2284 16.1394C21.1781 16.1132 21.1402 16.0684 21.1232 16.0146L20.9129 15.4013C20.8932 15.3482 20.8955 15.2896 20.9194 15.2383C20.9433 15.1869 20.9868 15.1471 21.0403 15.1274L21.842 14.8588C21.896 14.843 21.9541 14.8489 22.0038 14.875C22.0535 14.9012 22.0909 14.9456 22.108 14.9987Z" fill="#BD3728"/>
<path d="M21.2173 15.1438C21.2173 15.1438 21.3368 15.9705 21.5401 15.9688L21.2347 16.1416L20.7986 15.2708L21.2173 15.1438Z" fill="white"/>
<path d="M22.3174 15.6112C22.3371 15.6642 22.3348 15.7228 22.3109 15.7742C22.287 15.8255 22.2436 15.8654 22.19 15.885L21.3918 16.1546C21.3375 16.1711 21.2787 16.1656 21.2284 16.1394C21.1781 16.1132 21.1402 16.0683 21.1232 16.0146L20.9129 15.4013C20.8932 15.3482 20.8955 15.2896 20.9194 15.2382C20.9433 15.1869 20.9868 15.147 21.0403 15.1274L21.842 14.8587C21.8965 14.842 21.9554 14.8473 22.006 14.8735C22.0565 14.8998 22.0945 14.9448 22.1115 14.9987L22.3174 15.6112Z" stroke="#763317" stroke-linecap="round" stroke-linejoin="round"/>
<path d="M24.049 15.6683L24.4852 14.5599C24.5028 14.5114 24.5299 14.4667 24.565 14.4286C24.6001 14.3905 24.6424 14.3596 24.6896 14.3377C24.7368 14.3158 24.7878 14.3033 24.8399 14.3009C24.8919 14.2986 24.9439 14.3065 24.9928 14.3241L26.4427 14.8856C26.491 14.9057 26.5348 14.9352 26.5716 14.9722C26.6084 15.0092 26.6375 15.0531 26.6571 15.1012C26.6767 15.1494 26.6865 15.201 26.686 15.2529C26.6854 15.3049 26.6744 15.3562 26.6538 15.4039L26.2176 16.5123C26.1818 16.6102 26.1082 16.69 26.0131 16.7344C25.9179 16.7787 25.8089 16.784 25.7099 16.749L24.2592 16.1866C24.2109 16.1664 24.1671 16.137 24.1303 16.1C24.0935 16.0629 24.0645 16.019 24.045 15.9708C24.0254 15.9226 24.0157 15.8711 24.0164 15.8191C24.0171 15.7672 24.0282 15.7159 24.049 15.6683Z" fill="#BD3728"/>
<path d="M25.4735 16.508C25.4735 16.508 26.2961 15.2044 26.0065 14.9677L26.6398 15.0886L26.2167 16.8302L25.4735 16.508Z" fill="white"/>
<path d="M24.4869 14.5599C24.5045 14.5114 24.5316 14.4667 24.5667 14.4286C24.6018 14.3905 24.6441 14.3596 24.6913 14.3377C24.7385 14.3158 24.7895 14.3033 24.8416 14.3009C24.8936 14.2986 24.9456 14.3065 24.9946 14.3241L26.4444 14.8856C26.4927 14.9057 26.5365 14.9352 26.5733 14.9722C26.6101 15.0092 26.6392 15.0531 26.6588 15.1012C26.6784 15.1494 26.6882 15.201 26.6877 15.2529C26.6871 15.3049 26.6762 15.3562 26.6555 15.4039L26.2193 16.5123C26.1835 16.6102 26.1099 16.69 26.0148 16.7344C25.9197 16.7787 25.8106 16.784 25.7116 16.749L24.2609 16.1866C24.2126 16.1664 24.1688 16.137 24.132 16.1C24.0952 16.0629 24.0662 16.019 24.0467 15.9708C24.0271 15.9226 24.0174 15.8711 24.0181 15.8191C24.0188 15.7672 24.0299 15.7159 24.0507 15.6683L24.4869 14.5599Z" stroke="#763317" stroke-linecap="round" stroke-linejoin="round"/>
<path d="M30.7598 8.631L32.0151 9.44305C32.1263 9.51155 32.2057 9.62082 32.236 9.74704C32.2662 9.87327 32.2448 10.0062 32.1765 10.1169L31.114 11.7263C31.0771 11.7791 31.03 11.8242 30.9754 11.8591C30.9209 11.8939 30.86 11.9177 30.7961 11.9292C30.7323 11.9406 30.6668 11.9395 30.6034 11.9259C30.54 11.9123 30.4799 11.8865 30.4266 11.8498L29.1722 11.0386C29.0606 10.9705 28.9809 10.8612 28.9506 10.7348C28.9203 10.6085 28.942 10.4754 29.0108 10.3648L30.0724 8.7554C30.147 8.64874 30.2613 8.57574 30.3901 8.55241C30.519 8.52909 30.652 8.55736 30.7598 8.631Z" fill="#BD3728"/>
<path d="M29.3632 10.1384C29.3632 10.1384 30.7589 11.4654 31.1253 11.1751L30.8156 11.9094L28.7761 10.9539L29.3632 10.1384Z" fill="white"/>
<path d="M32.0151 9.44305C32.1263 9.51155 32.2057 9.62082 32.236 9.74704C32.2662 9.87327 32.2448 10.0062 32.1765 10.1169L31.114 11.7263C31.0771 11.7791 31.03 11.8242 30.9754 11.8591C30.9209 11.8939 30.86 11.9177 30.7961 11.9292C30.7323 11.9406 30.6668 11.9395 30.6034 11.9259C30.54 11.9123 30.4799 11.8865 30.4266 11.8498L29.1722 11.0386C29.0606 10.9705 28.9809 10.8612 28.9506 10.7348C28.9203 10.6085 28.942 10.4754 29.0108 10.3648L30.0724 8.7554C30.147 8.64874 30.2613 8.57574 30.3901 8.55241C30.519 8.52909 30.652 8.55736 30.7598 8.631L32.0151 9.44305Z" stroke="#763317" stroke-linecap="round" stroke-linejoin="round"/>
<path d="M30.5958 18.1226L30.7659 19.5973C30.784 19.7258 30.75 19.8562 30.6711 19.9598C30.5923 20.0635 30.4751 20.1319 30.3454 20.1501L28.4167 20.3687C28.2861 20.38 28.1563 20.3394 28.0559 20.256C27.9555 20.1726 27.8926 20.0531 27.8811 19.9238L27.711 18.4483C27.693 18.3198 27.7272 18.1895 27.806 18.0859C27.8848 17.9823 28.0018 17.9138 28.1314 17.8954L30.0601 17.6777C30.1248 17.672 30.19 17.679 30.252 17.6983C30.3139 17.7176 30.3714 17.7488 30.4212 17.7901C30.4709 17.8314 30.5119 17.8821 30.5419 17.9391C30.5719 17.9962 30.5902 18.0585 30.5958 18.1226Z" fill="#BD3728"/>
<path d="M28.5319 18.0198C28.5319 18.0198 28.3932 19.9316 28.8511 20.0257L28.0826 20.2581L27.5226 18.0984L28.5319 18.0198Z" fill="white"/>
<path d="M30.7659 19.5973C30.784 19.7258 30.75 19.8562 30.6711 19.9598C30.5923 20.0635 30.4751 20.1319 30.3454 20.1501L28.4167 20.3687C28.2861 20.38 28.1563 20.3394 28.0559 20.256C27.9555 20.1726 27.8926 20.0531 27.8811 19.9238L27.711 18.4483C27.693 18.3198 27.7272 18.1895 27.806 18.0859C27.8848 17.9823 28.0018 17.9138 28.1314 17.8954L30.0601 17.6777C30.1248 17.672 30.19 17.679 30.252 17.6983C30.3139 17.7176 30.3714 17.7488 30.4212 17.7901C30.4709 17.8314 30.5119 17.8821 30.5419 17.9391C30.5719 17.9962 30.5902 18.0585 30.5958 18.1226L30.7659 19.5973Z" stroke="#763317" stroke-linecap="round" stroke-linejoin="round"/>
<path d="M9.77417 35.8883L17.1262 32.7101L18.3125 32.1961L21.0368 31.0186L22.361 30.4467L32.5664 26.04L31.6941 32.8103L30.9692 38.4195L29.4784 49.9437C29.4784 49.9437 13.7869 51.4382 9.77417 35.8883Z" fill="#E8E0A6"/>
<path d="M12.6545 34.6469L25.0355 29.2908L26.2865 28.7509L26.4077 28.6982L28.3268 27.868L32.5672 26.04L29.9005 46.6869C29.9005 46.6869 17.6164 48.8051 12.6545 34.6469Z" fill="#EEB51D"/>
<path d="M27.4955 46.7802L31.9749 26.7588L29.4975 46.3241L27.4955 46.7802Z" fill="white"/>
<path d="M17.127 41.7956C17.127 41.7956 21.4223 32.1486 32.1311 26.5308L12.8098 34.4198C12.8098 34.4198 14.0756 38.5439 17.127 41.7956Z" fill="#F58921"/>
<path d="M17.1261 32.7136L18.3125 32.1996L21.0368 31.0221L22.361 30.4502C23.1941 30.7164 23.9257 31.2275 24.4585 31.9154C24.9912 32.6034 25.2999 33.4356 25.3435 34.3015C25.3871 35.1674 25.1635 36.0259 24.7024 36.7629C24.2414 37.4999 23.5647 38.0805 22.7624 38.4274C21.9602 38.7744 21.0702 38.8712 20.211 38.7052C19.3518 38.5391 18.5639 38.118 17.9522 37.4978C17.3405 36.8776 16.9339 36.0877 16.7865 35.2331C16.6391 34.3785 16.7579 33.4997 17.127 32.7136H17.1261Z" fill="#BD3728"/>
<path d="M28.2397 33.9014C28.6087 33.363 29.1497 32.963 29.7758 32.7655C30.4019 32.5679 31.0768 32.5843 31.6923 32.8121L30.9674 38.4213C30.4118 38.4784 29.8512 38.3771 29.3517 38.1294C28.8522 37.8816 28.4346 37.4977 28.148 37.0228C27.8614 36.548 27.7178 36.0019 27.734 35.4489C27.7503 34.8959 27.9257 34.359 28.2397 33.9014Z" fill="#BD3728"/>
<path d="M20.9155 38.4973C20.9155 38.4973 26.0937 35.0987 23.5203 30.6981C23.5203 30.6981 26.8805 35.0175 24.0769 37.4883C21.5401 39.7266 20.9155 38.4973 20.9155 38.4973Z" fill="white"/>
<path d="M18.8761 37.7129C18.8761 37.7129 17.4664 33.3831 21.6536 31.3365L17.0102 32.9779C17.0102 32.9779 16.0707 36.4231 18.8761 37.7129Z" fill="#8F251E"/>
<path d="M17.1261 32.7136L18.3125 32.1996L21.0368 31.0221L22.361 30.4502C23.1941 30.7164 23.9257 31.2275 24.4585 31.9154C24.9912 32.6034 25.2999 33.4356 25.3435 34.3015C25.3871 35.1674 25.1635 36.0259 24.7024 36.7629C24.2414 37.4999 23.5647 38.0805 22.7624 38.4274C21.9602 38.7744 21.0702 38.8712 20.211 38.7052C19.3518 38.5391 18.5639 38.118 17.9522 37.4978C17.3405 36.8776 16.9339 36.0877 16.7865 35.2331C16.6391 34.3785 16.7579 33.4997 17.127 32.7136H17.1261Z" stroke="#763317" stroke-linecap="round" stroke-linejoin="round"/>
<path d="M30.0524 37.8097L30.8654 33.1093L31.1628 33.1257L30.526 37.9297L30.0524 37.8097Z" fill="white"/>
<path d="M29.2192 37.4477C29.2192 37.4477 28.3024 35.18 30.1919 33.0548C30.1919 33.0548 27.7589 33.358 27.745 35.7899C27.731 38.2217 29.2192 37.4477 29.2192 37.4477Z" fill="#8F251E"/>
<path d="M28.2397 33.9014C28.6087 33.363 29.1497 32.963 29.7758 32.7655C30.4019 32.5679 31.0768 32.5843 31.6923 32.8121L30.9674 38.4213C30.4118 38.4784 29.8512 38.3771 29.3517 38.1294C28.8522 37.8816 28.4346 37.4977 28.148 37.0228C27.8614 36.548 27.7178 36.0019 27.734 35.4489C27.7503 34.8959 27.9257 34.359 28.2397 33.9014V33.9014Z" stroke="#763317" stroke-linecap="round" stroke-linejoin="round"/>
<path d="M27.2042 49.3874C27.2042 49.3874 27.636 48.7127 20.2186 45.3151L29.5046 46.6489L29.119 49.8919L27.2042 49.3874Z" fill="white"/>
<path d="M16.9081 46.3025C16.9081 46.3025 14.0294 41.2263 14.6627 39.1245L12.7392 34.8854L9.77332 35.8918C9.77332 35.8918 11.135 41.7472 16.9081 46.3025Z" fill="#EBCD93"/>
<path d="M9.77417 35.8883L17.1262 32.7101L18.3125 32.1961L21.0368 31.0186L22.361 30.4467L32.5664 26.04L31.6941 32.8103L30.9692 38.4195L29.4784 49.9437C29.4784 49.9437 13.7869 51.4382 9.77417 35.8883Z" stroke="#763317" stroke-linecap="round" stroke-linejoin="round"/>
<path d="M12.6537 34.6461L32.5664 26.04L29.8997 46.6869C29.8997 46.6869 17.6155 48.8051 12.6537 34.6461Z" stroke="#763317" stroke-linecap="round" stroke-linejoin="round"/>
<path d="M24.0647 44.5272C24.0647 44.5272 26.5229 40.53 29.194 43.6633C29.194 43.6676 27.6308 46.4321 24.0647 44.5272Z" fill="#56B447"/>
<path d="M29.4085 43.3877C29.4085 43.3877 27.2085 45.4368 24.8366 44.1246L24.5461 44.4762C24.5461 44.4762 28.1637 45.9483 29.4085 43.3877Z" fill="white"/>
<path d="M29.1225 43.6391C29.1225 43.6391 26.9608 42.1411 24.6779 44.4062C24.6779 44.4062 24.6256 43.3091 25.8573 42.8676C27.0891 42.4262 28.6052 42.3907 29.1225 43.6391Z" fill="#449D46"/>
<path d="M29.1643 43.5121C29.1643 43.5121 27.7764 46.3629 24.0978 44.6861C24.096 44.6861 26.3022 40.5447 29.1643 43.5121Z" stroke="#783518" stroke-linecap="round" stroke-linejoin="round"/>
<path d="M27.356 30.1815C27.356 30.1815 29.3972 26.8599 31.6173 29.4654C31.6173 29.4654 30.3184 31.7633 27.356 30.1815Z" fill="#56B447"/>
<path d="M31.7952 29.2363C31.7952 29.2363 29.9676 30.9391 27.9962 29.848L27.7598 30.1374C27.7598 30.1374 30.7615 31.3598 31.7952 29.2363Z" fill="white"/>
<path d="M31.5571 29.4412C31.5571 29.4412 29.7662 28.1998 27.8645 30.0796C27.8645 30.0796 27.8218 29.1682 28.845 28.801C29.8683 28.4339 31.1279 28.4045 31.5571 29.4412Z" fill="#449D46"/>
<path d="M31.5929 29.3357C31.5929 29.3357 30.4397 31.7088 27.3839 30.3119C27.3839 30.3119 29.2141 26.8711 31.5929 29.3357Z" stroke="#783518" stroke-linecap="round" stroke-linejoin="round"/>
<path d="M26.6381 40.7641C26.6381 40.7641 24.2471 39.9711 25.5791 38.2208C25.5791 38.2208 27.2156 38.702 26.6381 40.7641Z" fill="#56B447"/>
<path d="M25.4047 38.1465C25.4047 38.1465 26.7411 39.0371 26.3328 40.4142L26.5509 40.5222C26.5509 40.5222 26.899 38.4843 25.4047 38.1465Z" fill="white"/>
<path d="M25.5721 38.264C25.5721 38.264 25.0408 39.5547 26.5011 40.4626C26.5011 40.4626 25.9306 40.619 25.5529 40.0367C25.1752 39.4545 24.9771 38.6778 25.5721 38.264Z" fill="#449D46"/>
<path d="M25.4996 38.2571C25.4996 38.2571 27.164 38.6337 26.7209 40.7278C26.713 40.7261 24.2801 40.0825 25.4996 38.2571Z" stroke="#783518" stroke-linecap="round" stroke-linejoin="round"/>
<path d="M27.2252 33.3424C27.2252 33.3424 25.5015 32.7714 26.4611 31.511C26.4611 31.511 27.6413 31.8565 27.2252 33.3424Z" fill="#56B447"/>
<path d="M26.3363 31.4557C26.3363 31.4557 27.3002 32.0976 27.0054 33.0902L27.1633 33.1679C27.1633 33.1679 27.411 31.6993 26.3363 31.4557Z" fill="white"/>
<path d="M26.4558 31.5404C26.4558 31.5404 26.0737 32.4699 27.1257 33.1256C26.9937 33.1529 26.8562 33.1377 26.7334 33.0824C26.6106 33.0271 26.5088 32.9345 26.4427 32.8181C26.1705 32.3982 26.0275 31.8393 26.4558 31.5404Z" fill="#449D46"/>
<path d="M26.4051 31.5352C26.4051 31.5352 27.6037 31.8073 27.2775 33.3165C27.281 33.3165 25.525 32.8517 26.4051 31.5352Z" stroke="#783518" stroke-linecap="round" stroke-linejoin="round"/>
<path d="M17.7281 39.837C17.7281 39.837 16.0052 39.266 16.9639 38.0056C16.9604 38.0056 18.1407 38.3503 17.7281 39.837Z" fill="#56B447"/>
<path d="M16.8365 37.9504C16.8365 37.9504 17.7961 38.5923 17.5056 39.5849L17.6635 39.6627C17.6635 39.6627 17.9121 38.1941 16.8365 37.9504Z" fill="white"/>
<path d="M16.956 38.035C16.956 38.035 16.5731 38.9654 17.626 39.6203C17.4938 39.6478 17.3563 39.6329 17.2333 39.5777C17.1104 39.5226 17.0083 39.43 16.9421 39.3136C16.6699 38.8937 16.5268 38.3339 16.956 38.035Z" fill="#449D46"/>
<path d="M16.9047 38.0299C16.9047 38.0299 18.1041 38.302 17.7814 39.8112C17.7814 39.8112 16.0254 39.3439 16.9047 38.0299Z" stroke="#783518" stroke-linecap="round" stroke-linejoin="round"/>
<path d="M14.6278 36.8385C14.6278 36.8385 14.0486 35.1332 15.6415 35.1306C15.6415 35.1306 16.0768 36.2709 14.6278 36.8385Z" fill="#56B447"/>
<path d="M15.6109 34.9985C15.6109 34.9985 15.6763 36.1466 14.6993 36.5138L14.7316 36.6866C14.7316 36.6866 16.0645 35.9955 15.6109 34.9985Z" fill="white"/>
<path d="M15.6153 35.1446C15.6153 35.1446 14.6356 35.4037 14.7429 36.6296C14.641 36.542 14.57 36.4244 14.5402 36.2941C14.5104 36.1637 14.5234 36.0273 14.5772 35.9048C14.7517 35.4366 15.1163 34.9865 15.6153 35.1446Z" fill="#449D46"/>
<path d="M15.5882 35.1005C15.5882 35.1005 16.0933 36.2114 14.6836 36.868C14.6836 36.868 13.998 35.1972 15.5882 35.1005Z" stroke="#783518" stroke-linecap="round" stroke-linejoin="round"/>
<path d="M20.4541 43.4422C20.4541 43.4422 19.3462 40.1837 22.3898 40.1785C22.3898 40.1785 23.2237 42.3563 20.4541 43.4422Z" fill="#56B447"/>
<path d="M22.333 39.927C22.333 39.927 22.456 42.1213 20.5884 42.8219L20.6503 43.1502C20.6503 43.1502 23.1984 41.831 22.333 39.927Z" fill="white"/>
<path d="M22.3401 40.2078C22.3401 40.2078 20.468 40.7037 20.6748 43.0457C20.6748 43.0457 20.0275 42.5567 20.359 41.6634C20.6905 40.7702 21.3866 39.9029 22.3401 40.2078Z" fill="#449D46"/>
<path d="M22.2886 40.1213C22.2886 40.1213 23.2534 42.2448 20.5596 43.4983C20.5596 43.4983 19.2503 40.3131 22.2886 40.1213Z" stroke="#783518" stroke-linecap="round" stroke-linejoin="round"/>
<path d="M52.4704 40.0436L46.0387 35.2922L45.0015 34.5268L42.6165 32.7671L41.4554 31.9144L32.5315 25.3256L38.8995 22.721L44.178 20.5613L55.0245 16.1287C55.0245 16.1287 64.1134 28.8908 52.4704 40.0436Z" fill="#E8E0A6"/>
<path d="M49.9511 38.1837L39.1194 30.1867L38.0254 29.3789L37.919 29.3003L36.2389 28.0615L32.5306 25.3247L51.9583 17.3848C51.9583 17.3848 59.9087 26.897 49.9511 38.1837Z" fill="#EEB51D"/>
<path d="M53.2346 19.4037L33.4553 25.4768L51.8414 17.9092L53.2346 19.4037Z" fill="white"/>
<path d="M54.004 30.7913C54.004 30.7913 43.4139 31.8789 33.1788 25.4534L49.6746 38.1611C49.6746 38.1611 52.6658 35.0295 54.004 30.7913Z" fill="#F58921"/>
<path d="M46.0386 35.2957L45.0014 34.5303L42.6165 32.7705L41.4554 31.9144C41.276 31.0659 41.3617 30.1834 41.701 29.3842C42.0403 28.5851 42.6173 27.9071 43.3551 27.4405C44.0929 26.9739 44.9566 26.7408 45.8314 26.7721C46.7063 26.8034 47.5508 27.0976 48.2527 27.6157C48.9546 28.1337 49.4806 28.8511 49.7608 29.6724C50.0411 30.4937 50.0623 31.3801 49.8216 32.2136C49.5809 33.0471 49.0897 33.7883 48.4133 34.3387C47.737 34.8891 46.9075 35.2226 46.0351 35.2948L46.0386 35.2957Z" fill="#BD3728"/>
<path d="M41.5688 25.1502C40.9137 25.0998 40.2946 24.833 39.8108 24.3925C39.3271 23.952 39.0068 23.3633 38.9012 22.721L44.1797 20.5613C44.5054 21.0108 44.6946 21.5431 44.725 22.0956C44.7555 22.648 44.6259 23.1976 44.3516 23.6795C44.0773 24.1615 43.6696 24.5558 43.1766 24.8161C42.6836 25.0763 42.1258 25.1917 41.5688 25.1485V25.1502Z" fill="#BD3728"/>
<path d="M49.2331 29.1699C49.2331 29.1699 43.6851 26.4011 41.1064 30.7914C41.1064 30.7914 43.2253 25.7627 46.7853 26.9479C50.0042 28.0269 49.2331 29.1699 49.2331 29.1699Z" fill="white"/>
<path d="M49.5568 31.3098C49.5568 31.3098 46.4583 34.6677 42.5895 32.0873L46.3344 35.2647C46.3344 35.2647 49.8168 34.3654 49.5568 31.3098Z" fill="#8F251E"/>
<path d="M46.0386 35.2957L45.0014 34.5303L42.6165 32.7705L41.4554 31.9144C41.276 31.0659 41.3617 30.1834 41.701 29.3842C42.0403 28.5851 42.6173 27.9071 43.3551 27.4405C44.0929 26.9739 44.9566 26.7408 45.8314 26.7721C46.7063 26.8034 47.5508 27.0976 48.2527 27.6157C48.9546 28.1337 49.4806 28.8511 49.7608 29.6724C50.0411 30.4937 50.0623 31.3801 49.8216 32.2136C49.5809 33.0471 49.0897 33.7883 48.4133 34.3387C47.737 34.8891 46.9075 35.2226 46.0351 35.2948L46.0386 35.2957Z" stroke="#763317" stroke-linecap="round" stroke-linejoin="round"/>
<path d="M44.1004 21.6523L39.5747 23.2833L39.4421 23.0198L43.9695 21.1858L44.1004 21.6523Z" fill="white"/>
<path d="M44.1963 22.5482C44.1963 22.5482 42.6619 24.4609 39.8608 23.889C39.8608 23.889 41.3333 25.8318 43.4732 24.638C45.613 23.4441 44.1963 22.5482 44.1963 22.5482Z" fill="#8F251E"/>
<path d="M41.5688 25.1502C40.9137 25.0998 40.2946 24.833 39.8108 24.3925C39.3271 23.952 39.0068 23.3633 38.9012 22.721L44.1797 20.5613C44.5054 21.0108 44.6946 21.5431 44.725 22.0956C44.7555 22.648 44.6259 23.1976 44.3516 23.6795C44.0773 24.1615 43.6696 24.5558 43.1766 24.8161C42.6836 25.0763 42.1258 25.1917 41.5688 25.1485V25.1502Z" stroke="#763317" stroke-linecap="round" stroke-linejoin="round"/>
<path d="M55.6657 18.3618C55.6657 18.3618 54.8597 18.3247 55.5576 26.3882L52.1223 17.739L55.1572 16.463L55.6657 18.3618Z" fill="white"/>
<path d="M58.0638 28.7466C58.0638 28.7466 55.0421 33.7433 52.883 34.2366L50.1195 37.9919L52.4704 40.0436C52.4704 40.0436 56.9315 35.9747 58.0638 28.7466Z" fill="#EBCD93"/>
<path d="M52.4704 40.0436L46.0387 35.2922L45.0015 34.5268L42.6165 32.7671L41.4554 31.9144L32.5315 25.3256L38.8995 22.721L44.178 20.5613L55.0245 16.1287C55.0245 16.1287 64.1134 28.8908 52.4704 40.0436Z" stroke="#763317" stroke-linecap="round" stroke-linejoin="round"/>
<path d="M49.9519 38.1845L32.5315 25.3256L51.9574 17.3848C51.9574 17.3848 59.9078 26.897 49.9519 38.1845Z" stroke="#763317" stroke-linecap="round" stroke-linejoin="round"/>
<path d="M51.6006 21.9451C51.6006 21.9451 48.6408 21.8587 49.5341 19.4485C49.5341 19.4485 51.5387 19.4321 51.6006 21.9451Z" fill="#56B447"/>
<path d="M49.3143 19.4201C49.3143 19.4201 51.1235 19.9695 51.1392 21.6549L51.4228 21.7025C51.4228 21.7025 51.1078 19.2957 49.3143 19.4201Z" fill="white"/>
<path d="M49.5411 19.4969C49.5411 19.4969 49.3893 21.1262 51.3433 21.6567C51.3433 21.6567 50.7571 22.0247 50.1308 21.4986C49.5045 20.9725 49.0159 20.1656 49.5411 19.4969Z" fill="#449D46"/>
<path d="M49.4582 19.5134C49.4582 19.5134 51.4585 19.3743 51.6765 21.8787C51.6765 21.8787 48.7167 21.9797 49.4582 19.5134Z" stroke="#783518" stroke-linecap="round" stroke-linejoin="round"/>
<path d="M53.0488 29.5068C53.0488 29.5068 53.7074 32.3646 51.1244 32.1123C51.1244 32.1123 50.6071 30.1936 53.0488 29.5068Z" fill="#56B447"/>
<path d="M51.1514 32.3308C51.1514 32.3308 51.2386 30.4588 52.8804 30.0216L52.8551 29.7383C52.8551 29.7383 50.5809 30.6419 51.1514 32.3308Z" fill="white"/>
<path d="M51.1697 32.0941C51.1697 32.0941 52.8009 31.835 52.8271 29.8264C52.8271 29.8264 53.3348 30.2964 52.9754 31.0281C52.616 31.7598 51.9513 32.4328 51.1697 32.0941Z" fill="#449D46"/>
<path d="M51.2064 32.1736C51.2064 32.1736 50.5696 30.2903 52.9641 29.455C52.9641 29.4506 53.8007 32.26 51.2064 32.1736Z" stroke="#783518" stroke-linecap="round" stroke-linejoin="round"/>
<path d="M38.7512 27.7539C38.7512 27.7539 34.8258 27.6442 36.0104 24.4426C36.0069 24.4426 38.664 24.421 38.7512 27.7539Z" fill="#56B447"/>
<path d="M35.7146 24.4046C35.7146 24.4046 38.1135 25.1329 38.1344 27.3686L38.5104 27.4308C38.5104 27.4308 38.0934 24.2396 35.7146 24.4046Z" fill="white"/>
<path d="M36.0155 24.5059C36.0155 24.5059 35.8149 26.6656 38.4057 27.3653C38.4057 27.3653 37.6276 27.8551 36.7989 27.1563C35.9702 26.4574 35.3194 25.3896 36.0155 24.5059Z" fill="#449D46"/>
<path d="M35.9065 24.5273C35.9065 24.5273 38.5583 24.3433 38.848 27.6641C38.848 27.6641 34.9234 27.7954 35.9065 24.5273Z" stroke="#783518" stroke-linecap="round" stroke-linejoin="round"/>
<path d="M49.0081 23.0769C50.9133 23.083 50.3794 25.0422 50.3794 25.0422L49.5699 24.9619C49.5699 24.9619 50.2956 26.1713 49.1433 26.2076C48.0276 26.2474 48.5091 24.9982 48.5091 24.9982L47.854 25.1304C47.854 25.1304 47.1029 23.0709 49.0081 23.0769Z" fill="#BF9D69"/>
<path d="M48.9574 23.1978C48.9574 23.1978 48.0162 23.7636 48.2848 24.8884L47.8539 25.1312C47.8539 25.1312 47.2529 23.1891 48.9574 23.1978Z" fill="white"/>
<path d="M48.5091 25.0033C48.5091 25.0033 48.0276 26.2516 49.1433 26.2128C50.2956 26.1721 49.5699 24.967 49.5699 24.967L50.3794 25.0474C50.3794 25.0474 50.9133 23.0881 49.0081 23.082C47.1029 23.076 47.854 25.1364 47.854 25.1364L48.5091 25.0033Z" stroke="#763317" stroke-linecap="round" stroke-linejoin="round"/>
<path d="M52.829 25.4639L53.4021 26.1308C53.4533 26.1879 53.4796 26.2627 53.4753 26.3389C53.4711 26.4151 53.4366 26.4866 53.3794 26.5377L52.5071 27.2729C52.4773 27.2967 52.4431 27.3145 52.4064 27.3253C52.3696 27.336 52.3311 27.3395 52.293 27.3354C52.255 27.3314 52.2181 27.32 52.1844 27.3019C52.1508 27.2837 52.1211 27.2592 52.0971 27.2297L51.524 26.5636C51.4724 26.5066 51.4458 26.4317 51.4499 26.3553C51.454 26.2789 51.4884 26.2072 51.5458 26.1559L52.4181 25.4207C52.4784 25.3725 52.5555 25.35 52.6326 25.3581C52.7096 25.3662 52.7803 25.4042 52.829 25.4639Z" fill="#BD3728"/>
<path d="M51.7838 26.0858C51.7838 26.0858 52.3508 27.0672 52.6064 26.9635L52.3072 27.3281L51.3127 26.4512L51.7838 26.0858Z" fill="white"/>
<path d="M53.4063 26.1306C53.4575 26.1877 53.4838 26.2625 53.4796 26.3387C53.4753 26.4149 53.4409 26.4864 53.3837 26.5375L52.5113 27.2727C52.4816 27.2966 52.4473 27.3144 52.4106 27.3251C52.3739 27.3358 52.3354 27.3393 52.2973 27.3353C52.2592 27.3313 52.2223 27.3199 52.1887 27.3017C52.1551 27.2836 52.1254 27.259 52.1013 27.2295L51.5282 26.5635C51.4767 26.5064 51.4501 26.4315 51.4541 26.3551C51.4582 26.2787 51.4927 26.207 51.55 26.1557L52.4224 25.4205C52.4826 25.3726 52.5595 25.3502 52.6364 25.3583C52.7132 25.3664 52.7837 25.4043 52.8324 25.4637L53.4063 26.1306Z" stroke="#763317" stroke-linecap="round" stroke-linejoin="round"/>
<path d="M41.424 26.5315L41.9326 27.1233C41.9777 27.1742 42.0008 27.2406 41.9971 27.3083C41.9933 27.376 41.963 27.4395 41.9125 27.4852L41.1396 28.1375C41.0858 28.1796 41.0175 28.1991 40.9493 28.1919C40.8811 28.1846 40.8185 28.1511 40.775 28.0986L40.2673 27.5086C40.2444 27.4837 40.2267 27.4546 40.2153 27.4229C40.2039 27.3912 40.1989 27.3576 40.2007 27.324C40.2025 27.2904 40.211 27.2575 40.2257 27.2272C40.2404 27.1969 40.2611 27.1698 40.2865 27.1475L41.0603 26.4952C41.1137 26.4531 41.1816 26.4332 41.2496 26.44C41.3176 26.4468 41.3802 26.4796 41.424 26.5315Z" fill="#BD3728"/>
<path d="M40.4959 27.0836C40.4959 27.0836 40.9984 27.9553 41.2252 27.8611L40.9635 28.1842L40.0824 27.4067L40.4959 27.0836Z" fill="white"/>
<path d="M41.9326 27.1233C41.9777 27.1743 42.0008 27.2407 41.9971 27.3083C41.9933 27.376 41.963 27.4395 41.9125 27.4853L41.1396 28.1375C41.0858 28.1796 41.0175 28.1992 40.9493 28.1919C40.8811 28.1846 40.8185 28.1511 40.775 28.0986L40.2673 27.5086C40.2444 27.4837 40.2267 27.4546 40.2153 27.423C40.2039 27.3913 40.1989 27.3577 40.2007 27.3241C40.2025 27.2905 40.211 27.2576 40.2257 27.2273C40.2404 27.1969 40.2611 27.1698 40.2865 27.1475L41.0603 26.4953C41.1139 26.4533 41.182 26.4338 41.2499 26.4409C41.3179 26.448 41.3804 26.4811 41.424 26.5333L41.9326 27.1233Z" stroke="#763317" stroke-linecap="round" stroke-linejoin="round"/>
<path d="M47.8829 21.5383C47.7224 22.1499 47.6055 22.5516 47.0044 22.5456C46.4034 22.5395 46.0239 21.9365 46.0239 21.9365C45.7622 21.4536 45.9873 20.5923 46.6834 20.5638C47.3795 20.5353 48.0434 20.9267 47.8829 21.5383ZM47.1266 21.5953C47.1719 21.4225 47.1056 21.2567 46.9774 21.2238C46.8492 21.191 46.7087 21.3042 46.6642 21.4761C46.6197 21.648 46.6852 21.8156 46.8125 21.8484C46.9399 21.8813 47.0812 21.7681 47.1257 21.5953H47.1266Z" fill="#39B24A"/>
<path d="M46.9774 21.224C47.1056 21.2568 47.1719 21.4235 47.1266 21.5954C47.0812 21.7673 46.9416 21.8814 46.8125 21.8485C46.6834 21.8157 46.618 21.649 46.6642 21.4762C46.7105 21.3034 46.8492 21.1903 46.9774 21.224Z" fill="#D0D18E"/>
<path d="M46.0239 21.9365C45.7622 21.4536 45.9873 20.5923 46.6834 20.5638C47.3795 20.5353 48.0434 20.9267 47.8829 21.5383C47.7224 22.1499 47.6055 22.5516 47.0044 22.5456C46.4034 22.5395 46.0239 21.9365 46.0239 21.9365Z" stroke="#763317" stroke-linecap="round" stroke-linejoin="round"/>
<path d="M50.4641 35.7397C50.3594 36.1353 50.2844 36.3962 49.8953 36.3928C49.5062 36.3893 49.2594 35.998 49.2594 35.998C49.0849 35.6844 49.2358 35.1272 49.6868 35.1082C50.1378 35.0892 50.5679 35.344 50.4641 35.7397ZM49.9738 35.7768C50.0035 35.6654 49.9599 35.5574 49.877 35.5358C49.7941 35.5142 49.7025 35.5876 49.6737 35.6999C49.645 35.8122 49.6877 35.9194 49.7706 35.941C49.8534 35.9625 49.9442 35.8883 49.9738 35.7768Z" fill="#39B24A"/>
<path d="M49.877 35.5358C49.9642 35.5574 50.0035 35.6652 49.9738 35.7765C49.9442 35.8877 49.8534 35.9619 49.7706 35.9403C49.6877 35.9188 49.6441 35.8109 49.6737 35.6997C49.7034 35.5884 49.7941 35.5143 49.877 35.5358Z" fill="#D0D18E"/>
<path d="M49.2594 35.998C49.0849 35.6844 49.2358 35.1272 49.6868 35.1082C50.1378 35.0892 50.5679 35.344 50.4641 35.7397C50.3603 36.1353 50.2844 36.3962 49.8953 36.3928C49.5062 36.3893 49.2594 35.998 49.2594 35.998Z" stroke="#763317" stroke-linecap="round" stroke-linejoin="round"/>
<path d="M29.9783 50.2858L30.7189 42.3761L30.8384 41.0992L31.1132 38.1672L31.2493 36.7435L32.2786 25.7627L37.8415 29.791L42.4517 33.129L51.9235 39.9874C51.9235 39.9874 45.6602 54.3141 29.9783 50.2858Z" fill="#E8E0A6"/>
<path d="M30.2687 47.1871L31.5161 33.8651L31.6426 32.5192L31.6548 32.3879L31.8485 30.3206L32.2759 25.761L49.241 38.048C49.241 38.048 45.1847 49.7234 30.2687 47.1871Z" fill="#EEB51D"/>
<path d="M48.1654 40.1784L32.6266 26.624L48.7281 38.2217L48.1654 40.1784Z" fill="white"/>
<path d="M38.7512 46.7621C38.7512 46.7621 32.296 38.3772 32.5018 26.3744L30.1431 46.9461C30.1431 46.9461 34.4009 47.8376 38.7512 46.7621Z" fill="#F58921"/>
<path d="M50.3306 41.6901C50.3306 41.6901 49.9415 40.9904 43.3563 45.7815L49.0212 38.3711L51.7019 40.2716L50.3306 41.6901Z" fill="white"/>
<path d="M42.6297 49.1282C42.6297 49.1282 36.7476 49.1766 35.1983 47.6086L30.5217 47.2294L29.9783 50.2858C29.9783 50.2858 35.8124 51.9349 42.6297 49.1282Z" fill="#EBCD93"/>
<path d="M29.9783 50.2858L30.7189 42.3761L30.8384 41.0992L31.1132 38.1672L31.2493 36.7435L32.2786 25.7627L37.8415 29.791L42.4517 33.129L51.9235 39.9874C51.9235 39.9874 45.6602 54.3141 29.9783 50.2858Z" stroke="#763317" stroke-linecap="round" stroke-linejoin="round"/>
<path d="M30.2678 47.1879L32.2742 25.7635L49.241 38.048C49.241 38.048 45.1838 49.7234 30.2678 47.1879Z" stroke="#763317" stroke-linecap="round" stroke-linejoin="round"/>
<path d="M41.7826 42.732L41.5392 42.1273C41.5167 42.0753 41.5157 42.0167 41.5367 41.9641C41.5576 41.9115 41.5986 41.8693 41.6509 41.8465L42.436 41.5338C42.4895 41.5142 42.5487 41.5166 42.6006 41.5402C42.6524 41.5638 42.6927 41.6069 42.7125 41.6599L42.9559 42.2594C42.9787 42.3113 42.9797 42.3701 42.9588 42.4227C42.9378 42.4754 42.8966 42.5176 42.8442 42.5402L42.0591 42.8529C42.0062 42.8725 41.9477 42.8708 41.896 42.8482C41.8443 42.8256 41.8036 42.7839 41.7826 42.732Z" fill="#BD3728"/>
<path d="M42.6618 42.5402C42.6618 42.5402 42.4961 41.7213 42.2937 41.7342L42.5894 41.5468L43.0779 42.3908L42.6618 42.5402Z" fill="white"/>
<path d="M41.5427 42.1315C41.5202 42.0796 41.5193 42.021 41.5402 41.9684C41.5611 41.9158 41.6022 41.8735 41.6544 41.8508L42.4395 41.5381C42.4931 41.5185 42.5523 41.5208 42.6041 41.5445C42.656 41.5681 42.6962 41.6112 42.716 41.6642L42.9594 42.2637C42.9822 42.3156 42.9832 42.3743 42.9623 42.427C42.9414 42.4797 42.9001 42.5219 42.8477 42.5445L42.0627 42.8572C42.0091 42.8768 41.9499 42.8747 41.8979 42.8512C41.8459 42.8277 41.8054 42.7849 41.7853 42.7319L41.5427 42.1315Z" stroke="#763317" stroke-linecap="round" stroke-linejoin="round"/>
<path d="M33.1474 29.5258L32.904 28.9211C32.8815 28.8693 32.8806 28.8108 32.9015 28.7583C32.9225 28.7059 32.9635 28.6637 33.0157 28.6412L33.8008 28.3284C33.8272 28.3186 33.8554 28.3141 33.8836 28.3151C33.9119 28.3161 33.9396 28.3226 33.9653 28.3342C33.991 28.3458 34.0141 28.3624 34.0333 28.3829C34.0526 28.4034 34.0675 28.4275 34.0773 28.4537L34.3216 29.0541C34.3441 29.1059 34.345 29.1644 34.324 29.2169C34.3031 29.2693 34.2621 29.3114 34.2099 29.334L33.4248 29.6467C33.3718 29.6668 33.3129 29.6654 33.261 29.6427C33.2091 29.6201 33.1682 29.5781 33.1474 29.5258Z" fill="#BD3728"/>
<path d="M34.0267 29.3323C34.0267 29.3323 33.861 28.5134 33.6577 28.5263L33.9543 28.3406L34.4419 29.1855L34.0267 29.3323Z" fill="white"/>
<path d="M32.9066 28.9255C32.8841 28.8737 32.8832 28.8151 32.9041 28.7627C32.925 28.7103 32.9661 28.6681 33.0183 28.6456L33.8034 28.3328C33.8298 28.323 33.858 28.3185 33.8862 28.3195C33.9144 28.3205 33.9422 28.327 33.9679 28.3386C33.9936 28.3502 34.0167 28.3668 34.0359 28.3873C34.0551 28.4078 34.0701 28.4319 34.0799 28.4581L34.3241 29.0585C34.3466 29.1103 34.3475 29.1688 34.3266 29.2213C34.3057 29.2737 34.2647 29.3158 34.2125 29.3384L33.4274 29.6511C33.4009 29.661 33.3726 29.6655 33.3443 29.6645C33.316 29.6636 33.2882 29.6571 33.2625 29.6454C33.2367 29.6338 33.2135 29.6173 33.1942 29.5967C33.1749 29.5762 33.1599 29.5521 33.15 29.5259L32.9066 28.9255Z" stroke="#763317" stroke-linecap="round" stroke-linejoin="round"/>
<path d="M37.9522 32.7619L38.0952 32.1304C38.1064 32.075 38.1393 32.0262 38.1867 31.9948C38.2341 31.9633 38.2922 31.9518 38.3482 31.9628L39.1734 32.1451C39.2008 32.1519 39.2266 32.1641 39.2493 32.1808C39.272 32.1975 39.2912 32.2185 39.3057 32.2426C39.3202 32.2667 39.3298 32.2933 39.3339 32.3211C39.3379 32.3488 39.3365 32.3771 39.3296 32.4042L39.1874 33.0375C39.176 33.0928 39.143 33.1414 39.0957 33.1728C39.0483 33.2041 38.9904 33.2157 38.9344 33.2051L38.1083 33.0228C38.0528 33.0085 38.0052 32.9731 37.9759 32.9242C37.9467 32.8753 37.9381 32.817 37.9522 32.7619Z" fill="#BD3728"/>
<path d="M38.7878 33.0954C38.7878 33.0954 39.1202 32.3283 38.9449 32.2246L39.2938 32.2384L39.2135 33.2103L38.7878 33.0954Z" fill="white"/>
<path d="M38.0952 32.1304C38.1064 32.075 38.1393 32.0262 38.1867 31.9948C38.2341 31.9633 38.2922 31.9518 38.3482 31.9628L39.1734 32.1451C39.2008 32.1519 39.2266 32.1641 39.2493 32.1808C39.272 32.1975 39.2912 32.2185 39.3057 32.2426C39.3202 32.2667 39.3297 32.2933 39.3338 32.3211C39.3379 32.3488 39.3365 32.3771 39.3295 32.4042L39.1873 33.0375C39.176 33.0928 39.143 33.1414 39.0956 33.1728C39.0483 33.2041 38.9903 33.2157 38.9344 33.2051L38.1083 33.0228C38.0531 33.0085 38.0058 32.9733 37.9766 32.9249C37.9474 32.8764 37.9386 32.8185 37.9521 32.7636L38.0952 32.1304Z" stroke="#763317" stroke-linecap="round" stroke-linejoin="round"/>
<path d="M33.1684 37.8943L32.5473 37.6939C32.4926 37.6776 32.4465 37.6407 32.4192 37.591C32.392 37.5413 32.3856 37.4829 32.4016 37.4286L32.6633 36.6321C32.6824 36.5789 32.7221 36.5354 32.7736 36.5111C32.8251 36.4868 32.8843 36.4837 32.9381 36.5026L33.5592 36.7021C33.5863 36.71 33.6116 36.7232 33.6337 36.7408C33.6557 36.7584 33.674 36.7802 33.6875 36.8048C33.701 36.8295 33.7095 36.8565 33.7125 36.8844C33.7155 36.9122 33.7129 36.9404 33.7048 36.9673L33.4431 37.7638C33.424 37.8171 33.3844 37.8607 33.3329 37.8851C33.2814 37.9095 33.2223 37.9128 33.1684 37.8943Z" fill="#BD3728"/>
<path d="M33.5774 37.0968C33.5774 37.0968 32.8377 36.6983 32.7173 36.8613L32.7635 36.5164L33.7309 36.6888L33.5774 37.0968Z" fill="white"/>
<path d="M32.5429 37.6939C32.4882 37.6776 32.4421 37.6407 32.4148 37.591C32.3876 37.5413 32.3812 37.4829 32.3972 37.4286L32.6589 36.6321C32.678 36.5789 32.7177 36.5354 32.7692 36.5111C32.8207 36.4868 32.8799 36.4837 32.9337 36.5026L33.5548 36.7021C33.5819 36.71 33.6073 36.7232 33.6293 36.7408C33.6513 36.7584 33.6696 36.7802 33.6831 36.8048C33.6967 36.8295 33.7051 36.8565 33.7081 36.8844C33.7111 36.9122 33.7085 36.9404 33.7005 36.9673L33.4388 37.7638C33.4196 37.8171 33.38 37.8607 33.3285 37.8851C33.277 37.9095 33.2179 37.9128 33.164 37.8943L32.5429 37.6939Z" stroke="#763317" stroke-linecap="round" stroke-linejoin="round"/>
<path d="M32.2959 45.7591L32.3239 45.1129C32.3243 45.0849 32.3303 45.0572 32.3416 45.0315C32.3528 45.0058 32.3691 44.9825 32.3894 44.963C32.4098 44.9435 32.4338 44.9282 32.4601 44.9179C32.4864 44.9076 32.5145 44.9025 32.5428 44.903L33.3881 44.9384C33.445 44.9426 33.498 44.9689 33.5354 45.0117C33.5729 45.0544 33.5917 45.11 33.5879 45.1665L33.5599 45.8127C33.5588 45.8688 33.5353 45.9222 33.4947 45.9614C33.454 46.0005 33.3994 46.0222 33.3427 46.0217L32.4975 45.9863C32.4691 45.9846 32.4414 45.9774 32.4158 45.9651C32.3903 45.9528 32.3675 45.9355 32.3488 45.9144C32.33 45.8932 32.3157 45.8686 32.3066 45.842C32.2976 45.8153 32.2939 45.7872 32.2959 45.7591Z" fill="#BD3728"/>
<path d="M33.1805 45.9423C33.1805 45.9423 33.3707 45.1276 33.1805 45.0568L33.5295 45.0093L33.6228 45.9777L33.1805 45.9423Z" fill="white"/>
<path d="M32.3266 45.1129C32.327 45.0849 32.3331 45.0572 32.3443 45.0315C32.3556 45.0058 32.3718 44.9825 32.3921 44.963C32.4125 44.9435 32.4365 44.9282 32.4628 44.9179C32.4891 44.9076 32.5172 44.9025 32.5455 44.903L33.3908 44.9384C33.4478 44.9426 33.5007 44.9689 33.5382 45.0117C33.5756 45.0544 33.5944 45.11 33.5906 45.1665L33.5627 45.8127C33.5621 45.8407 33.556 45.8683 33.5446 45.894C33.5333 45.9197 33.5169 45.9429 33.4965 45.9623C33.4761 45.9817 33.452 45.9969 33.4256 46.0071C33.3993 46.0173 33.3711 46.0223 33.3428 46.0217L32.4976 45.9863C32.4693 45.9844 32.4418 45.9771 32.4165 45.9646C32.3911 45.9522 32.3686 45.9349 32.35 45.9138C32.3314 45.8927 32.3173 45.8682 32.3083 45.8416C32.2993 45.8151 32.2958 45.787 32.2978 45.7591L32.3266 45.1129Z" stroke="#763317" stroke-linecap="round" stroke-linejoin="round"/>
<path d="M35.7286 37.9348L35.0953 37.7758C35.0673 37.7697 35.0407 37.7581 35.0173 37.7417C34.9938 37.7253 34.974 37.7044 34.9588 37.6802C34.9437 37.656 34.9336 37.6291 34.9292 37.601C34.9248 37.5729 34.9261 37.5442 34.9331 37.5167L35.1415 36.7046C35.157 36.651 35.1931 36.6056 35.2421 36.5782C35.291 36.5507 35.3489 36.5434 35.4032 36.5577L36.0365 36.7167C36.0646 36.7229 36.091 36.7346 36.1144 36.751C36.1379 36.7674 36.1577 36.7883 36.1729 36.8124C36.1881 36.8366 36.1983 36.8634 36.2029 36.8915C36.2075 36.9195 36.2064 36.9482 36.1997 36.9759L35.9947 37.7888C35.9789 37.843 35.942 37.8888 35.8921 37.9162C35.8422 37.9436 35.7834 37.9503 35.7286 37.9348Z" fill="#BD3728"/>
<path d="M36.0897 37.1176C36.0897 37.1176 35.3247 36.7666 35.2174 36.9374L35.241 36.5924L36.2171 36.7011L36.0897 37.1176Z" fill="white"/>
<path d="M35.0953 37.7758C35.0673 37.7697 35.0407 37.7581 35.0173 37.7417C34.9938 37.7253 34.974 37.7044 34.9588 37.6802C34.9437 37.656 34.9336 37.6291 34.9292 37.601C34.9248 37.5729 34.9261 37.5442 34.9331 37.5167L35.1415 36.7046C35.157 36.651 35.1931 36.6056 35.2421 36.5782C35.291 36.5507 35.3489 36.5434 35.4032 36.5577L36.0365 36.7167C36.0646 36.7229 36.091 36.7346 36.1144 36.751C36.1379 36.7674 36.1577 36.7883 36.1729 36.8124C36.1881 36.8366 36.1983 36.8634 36.2029 36.8915C36.2075 36.9195 36.2064 36.9482 36.1997 36.9759L35.9947 37.7888C35.979 37.8422 35.9429 37.8875 35.894 37.9149C35.8451 37.9424 35.7873 37.9498 35.733 37.9356L35.0953 37.7758Z" stroke="#763317" stroke-linecap="round" stroke-linejoin="round"/>
<path d="M42.5773 36.6106L42.333 36.0111C42.3105 35.959 42.3097 35.9003 42.3308 35.8477C42.3519 35.7951 42.3931 35.7529 42.4455 35.7303L43.2306 35.4176C43.2842 35.3982 43.3434 35.4005 43.3953 35.4239C43.4472 35.4474 43.4877 35.4901 43.508 35.5429L43.7514 36.1432C43.7626 36.1692 43.7685 36.197 43.7687 36.2252C43.769 36.2533 43.7636 36.2813 43.7529 36.3074C43.7422 36.3335 43.7264 36.3572 43.7064 36.3772C43.6863 36.3973 43.6625 36.4132 43.6363 36.424L42.8512 36.7367C42.7979 36.7557 42.7393 36.7531 42.688 36.7295C42.6367 36.7059 42.5969 36.6631 42.5773 36.6106Z" fill="#BD3728"/>
<path d="M43.4566 36.417C43.4566 36.417 43.2909 35.5981 43.0876 35.6119L43.3834 35.4253L43.871 36.271L43.4566 36.417Z" fill="white"/>
<path d="M42.333 36.0111C42.3105 35.959 42.3097 35.9003 42.3308 35.8477C42.3519 35.7951 42.3931 35.7529 42.4455 35.7303L43.2306 35.4176C43.2842 35.3982 43.3434 35.4005 43.3953 35.4239C43.4472 35.4474 43.4877 35.4901 43.508 35.5429L43.7514 36.1433C43.7626 36.1692 43.7685 36.197 43.7687 36.2252C43.769 36.2533 43.7636 36.2813 43.7529 36.3074C43.7422 36.3335 43.7264 36.3572 43.7064 36.3773C43.6863 36.3973 43.6625 36.4132 43.6363 36.424L42.8512 36.7367C42.8247 36.7465 42.7965 36.751 42.7682 36.75C42.7399 36.7489 42.7121 36.7424 42.6864 36.7306C42.6607 36.7189 42.6376 36.7023 42.6184 36.6817C42.5992 36.6611 42.5844 36.6369 42.5746 36.6106L42.333 36.0111Z" stroke="#763317" stroke-linecap="round" stroke-linejoin="round"/>
<path d="M44.6464 39.8743C44.2914 39.0916 44.0698 38.5672 44.7118 38.0679C45.3539 37.5686 46.2724 37.8865 46.2724 37.8865C46.9703 38.1767 47.4658 39.2791 46.7531 39.8959C46.0404 40.5127 45.0015 40.6561 44.6464 39.8743ZM45.3984 39.1763C45.4987 39.3974 45.7124 39.5175 45.8764 39.4441C46.0404 39.3706 46.091 39.1339 45.9915 38.9128C45.8921 38.6916 45.6775 38.5715 45.5126 38.6441C45.3478 38.7167 45.298 38.9551 45.3984 39.1763Z" fill="#39B24A"/>
<path d="M45.8765 39.4442C45.7125 39.5176 45.4988 39.3975 45.3984 39.1764C45.2981 38.9552 45.3496 38.7168 45.5127 38.6442C45.6758 38.5716 45.8913 38.6917 45.9916 38.9129C46.0919 39.134 46.0405 39.3716 45.8765 39.4442Z" fill="#D0D18E"/>
<path d="M46.2724 37.8865C46.9703 38.1767 47.4658 39.2791 46.7531 39.8959C46.0404 40.5127 45.0015 40.6561 44.6464 39.8743C44.2914 39.0925 44.0698 38.5672 44.7118 38.0679C45.3539 37.5686 46.2724 37.8865 46.2724 37.8865Z" stroke="#763317" stroke-linecap="round" stroke-linejoin="round"/>
<path d="M40.8344 37.5296C40.0056 37.7776 39.4517 37.9288 39.0339 37.2342C38.616 36.5396 39.0522 35.6792 39.0522 35.6792C39.4325 35.0356 40.6006 34.6857 41.1266 35.465C41.6526 36.2442 41.6631 37.2783 40.8344 37.5296ZM40.2342 36.6986C40.4688 36.6286 40.6171 36.4342 40.5648 36.2666C40.5125 36.0991 40.2804 36.0153 40.0466 36.0852C39.8129 36.1552 39.6646 36.3504 39.7169 36.5172C39.7692 36.6839 39.9978 36.7686 40.2342 36.6986Z" fill="#39B24A"/>
<path d="M40.5622 36.2642C40.6145 36.437 40.4662 36.6287 40.2316 36.6961C39.9969 36.7635 39.7657 36.6858 39.7143 36.5156C39.6628 36.3454 39.8094 36.1501 40.044 36.0836C40.2787 36.0171 40.5098 36.094 40.5622 36.2642Z" fill="#D0D18E"/>
<path d="M39.0522 35.6749C39.4325 35.0313 40.6006 34.6815 41.1266 35.4607C41.6526 36.2399 41.6631 37.2748 40.8344 37.5271C40.0056 37.7794 39.4517 37.9262 39.0339 37.2317C38.616 36.5371 39.0522 35.6749 39.0522 35.6749Z" stroke="#763317" stroke-linecap="round" stroke-linejoin="round"/>
<path d="M35.6867 34.4465C34.4437 34.8188 33.6141 35.0443 32.9877 34.0042C32.3614 32.9641 33.0157 31.6717 33.0157 31.6717C33.5844 30.7067 35.3361 30.1832 36.1238 31.3512C36.9115 32.5192 36.9289 34.0742 35.6867 34.4465ZM34.783 33.2051C35.1319 33.1006 35.3553 32.8086 35.2776 32.5537C35.2 32.2989 34.8519 32.1771 34.5012 32.2825C34.1506 32.3879 33.929 32.6798 34.0066 32.9338C34.0843 33.1878 34.4323 33.3105 34.783 33.2051Z" fill="#39B24A"/>
<path d="M35.2776 32.5537C35.3552 32.8129 35.1345 33.1005 34.783 33.2051C34.4314 33.3096 34.0851 33.1887 34.0066 32.9338C33.9281 32.679 34.1505 32.3878 34.5012 32.2824C34.8519 32.177 35.2 32.298 35.2776 32.5537Z" fill="#D0D18E"/>
<path d="M33.0156 31.67C33.5844 30.705 35.336 30.1815 36.1237 31.3495C36.9114 32.5175 36.9289 34.0742 35.6876 34.4465C34.4462 34.8189 33.6149 35.0443 32.9886 34.0042C32.3622 32.9641 33.0156 31.67 33.0156 31.67Z" stroke="#763317" stroke-linecap="round" stroke-linejoin="round"/>
<path d="M39.1874 45.7219C37.9444 46.0934 37.1148 46.3197 36.4884 45.2796C35.8621 44.2395 36.5155 42.9471 36.5155 42.9471C37.0877 41.9804 38.8385 41.4569 39.6236 42.6266C40.4087 43.7963 40.4323 45.3496 39.1874 45.7219ZM38.2837 44.4805C38.6326 44.376 38.8568 44.084 38.7783 43.8291C38.6998 43.5743 38.3535 43.4525 38.0019 43.5579C37.6504 43.6633 37.4297 43.9544 37.5073 44.2101C37.585 44.4658 37.9356 44.5859 38.2863 44.4805H38.2837Z" fill="#39B24A"/>
<path d="M38.7809 43.8292C38.8594 44.0884 38.637 44.3761 38.2863 44.4806C37.9356 44.5851 37.5884 44.4651 37.5099 44.2102C37.4314 43.9554 37.6538 43.6625 38.0045 43.558C38.3552 43.4535 38.7033 43.577 38.7809 43.8292Z" fill="#D0D18E"/>
<path d="M36.5181 42.9454C37.0877 41.9804 38.8385 41.4569 39.6236 42.6266C40.4087 43.7963 40.4287 45.3513 39.1874 45.7236C37.9461 46.096 37.1147 46.3214 36.4884 45.2813C35.8621 44.2412 36.5181 42.9454 36.5181 42.9454Z" stroke="#763317" stroke-linecap="round" stroke-linejoin="round"/>
<path d="M33.4571 41.8025C32.9433 41.9554 32.6013 42.0487 32.3431 41.6194C32.0849 41.19 32.3544 40.657 32.3544 40.657C32.59 40.2579 33.314 40.0419 33.6376 40.524C33.9613 41.006 33.97 41.6488 33.4571 41.8025ZM33.0811 41.2902C33.225 41.2471 33.3166 41.1261 33.2843 41.0207C33.2521 40.9153 33.1099 40.8652 32.9642 40.9093C32.8185 40.9533 32.7278 41.0725 32.7601 41.1779C32.7923 41.2833 32.9389 41.3308 33.0811 41.2902Z" fill="#39B24A"/>
<path d="M33.2878 41.0205C33.3201 41.1258 33.2285 41.2465 33.0846 41.2896C32.9406 41.3327 32.7958 41.2827 32.7636 41.1775C32.7313 41.0723 32.8229 40.9524 32.9677 40.9093C33.1125 40.8662 33.2555 40.9162 33.2878 41.0205Z" fill="#D0D18E"/>
<path d="M32.3544 40.657C32.59 40.2579 33.314 40.0419 33.6376 40.524C33.9613 41.006 33.97 41.647 33.4571 41.8025C32.9441 41.958 32.6013 42.0487 32.3431 41.6194C32.0849 41.19 32.3544 40.657 32.3544 40.657Z" stroke="#763317" stroke-linecap="round" stroke-linejoin="round"/>
<path d="M40.9696 40.6588C40.4566 40.8126 40.1147 40.9059 39.8556 40.4765C39.5965 40.0471 39.8678 39.5133 39.8678 39.5133C40.1025 39.115 40.8274 38.8982 41.1501 39.3811C41.4729 39.864 41.4825 40.5059 40.9696 40.6588ZM40.5971 40.1465C40.7419 40.1033 40.8335 39.9824 40.8012 39.877C40.7689 39.7716 40.6267 39.7223 40.4811 39.7655C40.3354 39.8087 40.2447 39.9297 40.2761 40.0351C40.3075 40.1405 40.4523 40.1906 40.5971 40.1465Z" fill="#39B24A"/>
<path d="M40.8012 39.8767C40.8335 39.9819 40.7419 40.1026 40.5971 40.1457C40.4522 40.1889 40.3092 40.1388 40.276 40.0345C40.2429 39.9301 40.3353 39.8085 40.481 39.7654C40.6267 39.7223 40.7689 39.7758 40.8012 39.8767Z" fill="#D0D18E"/>
<path d="M39.8678 39.5167C40.1025 39.1184 40.8274 38.9016 41.1501 39.3845C41.4729 39.8674 41.4825 40.5076 40.9696 40.6622C40.4566 40.8168 40.1147 40.9093 39.8556 40.4799C39.5965 40.0506 39.8678 39.5167 39.8678 39.5167Z" stroke="#763317" stroke-linecap="round" stroke-linejoin="round"/>
<path d="M37.2177 40.2475C36.6071 40.4306 36.1997 40.5412 35.8918 40.0307C35.5838 39.5201 35.9057 38.8843 35.9057 38.8843C36.1849 38.4109 37.0459 38.1526 37.4332 38.7271C37.8205 39.3015 37.8283 40.0652 37.2177 40.2475ZM36.7746 39.6428C36.949 39.591 37.0554 39.4475 37.0171 39.3231C36.9787 39.1987 36.8077 39.1374 36.6359 39.1892C36.464 39.2411 36.355 39.3845 36.3925 39.5089C36.43 39.6333 36.6018 39.6894 36.7746 39.6385V39.6428Z" fill="#39B24A"/>
<path d="M37.017 39.3185C37.0554 39.4427 36.9464 39.5858 36.7745 39.6376C36.6027 39.6893 36.4308 39.6298 36.3925 39.5039C36.3541 39.378 36.4631 39.2357 36.6358 39.1848C36.8086 39.1339 36.9787 39.1926 37.017 39.3185Z" fill="#D0D18E"/>
<path d="M35.9057 38.8843C36.1849 38.4109 37.0459 38.1526 37.4332 38.7271C37.8205 39.3016 37.8283 40.0652 37.2177 40.2475C36.6071 40.4298 36.1997 40.5412 35.8918 40.0307C35.5838 39.5201 35.9057 38.8843 35.9057 38.8843Z" stroke="#763317" stroke-linecap="round" stroke-linejoin="round"/>
<path d="M34.9706 44.395C34.36 44.5782 33.9526 44.6887 33.6447 44.1782C33.3368 43.6676 33.6586 43.0318 33.6586 43.0318C33.9387 42.5576 34.7988 42.3001 35.1861 42.8737C35.5734 43.4473 35.5812 44.2127 34.9706 44.395ZM34.5275 43.786C34.7019 43.7342 34.8084 43.5908 34.77 43.4655C34.7316 43.3402 34.5615 43.2806 34.3888 43.3324C34.2161 43.3843 34.1079 43.5277 34.1454 43.6521C34.1829 43.7765 34.3556 43.8361 34.5275 43.786Z" fill="#39B24A"/>
<path d="M34.7698 43.4652C34.8082 43.5903 34.6992 43.7334 34.5273 43.7852C34.3555 43.8369 34.1845 43.7774 34.1452 43.6515C34.106 43.5256 34.2168 43.3841 34.3886 43.3324C34.5605 43.2806 34.7315 43.3402 34.7698 43.4652Z" fill="#D0D18E"/>
<path d="M33.6586 43.0318C33.9387 42.5576 34.7988 42.3001 35.1861 42.8737C35.5734 43.4473 35.5812 44.2127 34.9706 44.395C34.36 44.5773 33.9526 44.6887 33.6447 44.1782C33.3368 43.6676 33.6586 43.0318 33.6586 43.0318Z" stroke="#763317" stroke-linecap="round" stroke-linejoin="round"/>
</svg>
